<?xml version="1.0" encoding="UTF-8"?>
<svg id="Warstwa_2" data-name="Warstwa 2" xmlns="http://www.w3.org/2000/svg" xmlns:xlink="http://www.w3.org/1999/xlink" viewBox="0 0 1308.1 329">
  <defs>
    <style>
      .cls-1 {
        fill: url(#Gradient_bez_nazwy_64);
      }

      .cls-2 {
        fill: url(#Gradient_bez_nazwy_93);
      }
    </style>
    <linearGradient id="Gradient_bez_nazwy_93" data-name="Gradient bez nazwy 93" x1="48.66" y1="279" x2="1220.96" y2="279" gradientUnits="userSpaceOnUse">
      <stop offset="0" stop-color="#e8eaea"/>
      <stop offset=".15" stop-color="#e8eaea"/>
      <stop offset=".17" stop-color="#e8eaea"/>
      <stop offset=".17" stop-color="#e6e3e4"/>
      <stop offset=".21" stop-color="#ddbabc"/>
      <stop offset=".25" stop-color="#d59597"/>
      <stop offset=".3" stop-color="#ce7478"/>
      <stop offset=".35" stop-color="#c8595d"/>
      <stop offset=".41" stop-color="#c34348"/>
      <stop offset=".48" stop-color="#bf3237"/>
      <stop offset=".56" stop-color="#bc262c"/>
      <stop offset=".68" stop-color="#bb1f25"/>
      <stop offset="1" stop-color="#bb1e24"/>
    </linearGradient>
    <linearGradient id="Gradient_bez_nazwy_64" data-name="Gradient bez nazwy 64" x1="3.95" y1="105.27" x2="1278.36" y2="105.27" gradientUnits="userSpaceOnUse">
      <stop offset="0" stop-color="#e8eaea"/>
      <stop offset=".54" stop-color="#e8eaea"/>
      <stop offset=".62" stop-color="#e8eaea"/>
      <stop offset=".65" stop-color="#e0c5c6"/>
      <stop offset=".69" stop-color="#d6999c"/>
      <stop offset=".74" stop-color="#cd7377"/>
      <stop offset=".78" stop-color="#c75458"/>
      <stop offset=".83" stop-color="#c13c41"/>
      <stop offset=".88" stop-color="#bd2b30"/>
      <stop offset=".93" stop-color="#bb2127"/>
      <stop offset="1" stop-color="#bb1e24"/>
    </linearGradient>
  </defs>
  <path class="cls-2" d="m331.1,234l-21,70h-69l90-70m87-5l-75,5,2,41,73-46Zm-33,52l-25,18,26,30-1-48Zm-82-51H48.66l19.27,25h196l39.17-25Zm148.11,0l-38.11,25h761.43l46.43-25H451.2Z"/>
  <path class="cls-1" d="m299.29,197.71c-11.93,0-22.36-2.25-31.3-6.76-8.94-4.5-15.91-10.74-20.9-18.72-4.99-7.97-7.49-17.16-7.49-27.56,0-10.95,2.22-20.59,6.66-28.91,4.44-8.32,10.54-14.84,18.3-19.55,7.76-4.71,16.71-7.07,26.83-7.07,11.37,0,20.73,2.43,28.08,7.28,7.35,4.86,12.79,11.37,16.33,19.55,3.54,8.18,5.3,17.34,5.3,27.46,0,1.39-.07,2.98-.21,4.78-.14,1.8-.35,3.19-.62,4.16h-75.3c.83,5.55,2.84,10.16,6.03,13.83,3.19,3.68,7.21,6.45,12.06,8.32,4.85,1.87,10.26,2.81,16.22,2.81h28.5v20.38h-28.5Zm-34.53-61.57h52.42c-.14-2.63-.52-5.27-1.14-7.9-.62-2.63-1.6-5.13-2.91-7.49-1.32-2.36-2.98-4.4-4.99-6.14-2.01-1.73-4.4-3.12-7.18-4.16-2.78-1.04-5.96-1.56-9.57-1.56-4.16,0-7.84.8-11.02,2.39-3.19,1.6-5.9,3.68-8.11,6.24-2.22,2.57-3.92,5.48-5.1,8.74-1.18,3.26-1.98,6.55-2.39,9.88Zm98.17,61.57v-20.38h51.17c2.5,0,4.68-.55,6.55-1.66,1.87-1.11,3.33-2.56,4.37-4.37,1.04-1.8,1.56-3.67,1.56-5.62,0-2.22-.49-4.16-1.46-5.82-.97-1.66-2.36-3.02-4.16-4.06-1.8-1.04-3.88-1.56-6.24-1.56h-20.8c-6.8,0-12.83-1.11-18.1-3.33-5.27-2.22-9.43-5.65-12.48-10.3-3.05-4.64-4.58-10.5-4.58-17.58,0-5.68,1.42-10.88,4.26-15.6,2.84-4.71,6.69-8.53,11.54-11.44,4.85-2.91,10.33-4.37,16.43-4.37h49.3v20.38h-47.01c-3.19,0-5.82,1.01-7.9,3.02-2.08,2.01-3.12,4.47-3.12,7.38s1.04,5.2,3.12,7.28,4.85,3.12,8.32,3.12h20.18c7.62,0,14.14,1.18,19.55,3.54,5.41,2.36,9.53,5.9,12.38,10.61,2.84,4.72,4.26,10.68,4.26,17.89,0,5.82-1.46,11.27-4.37,16.33-2.91,5.06-6.9,9.08-11.96,12.06-5.06,2.98-10.78,4.47-17.16,4.47h-53.66Zm315.74,2.5c-10.26,0-19.21-2.05-26.83-6.14-7.63-4.09-13.52-9.74-17.68-16.95-4.16-7.21-6.24-15.32-6.24-24.34v-61.15h23.92v60.94c0,5.41,1.21,10.16,3.64,14.25,2.42,4.09,5.68,7.28,9.78,9.57,4.09,2.29,8.56,3.43,13.42,3.43s9.32-1.14,13.42-3.43c4.09-2.29,7.35-5.48,9.78-9.57,2.42-4.09,3.64-8.84,3.64-14.25v-60.94h23.92v61.15c0,9.02-2.08,17.13-6.24,24.34-4.16,7.21-10.06,12.86-17.68,16.95-7.63,4.09-16.57,6.14-26.83,6.14Zm79.45-2.5V45.87h23.92v88.19h22.88l26.62-42.43h26.42l-29.74,46.18c9.57,3.33,16.98,8.91,22.26,16.74,5.27,7.84,7.9,16.82,7.9,26.94v16.22h-23.92v-16.22c0-4.99-1.18-9.53-3.54-13.62-2.36-4.09-5.55-7.31-9.57-9.67-4.02-2.36-8.6-3.54-13.73-3.54h-25.58v43.06h-23.92Zm261.66-17.89c-4.86,0-9.33-1.14-13.42-3.43-4.09-2.29-7.35-5.48-9.78-9.57-2.43-4.09-3.64-8.84-3.64-14.25v-60.94h-23.92v61.15c0,9.02,2.08,17.13,6.24,24.34,4.16,7.21,10.05,12.86,17.68,16.95,7.62,4.09,16.57,6.14,26.83,6.14,3.6,0,7.03-.27,10.31-.77v-21.56c-3.22,1.29-6.66,1.94-10.31,1.94Zm26.83,14.25c7.62-4.09,13.52-9.74,17.68-16.95,4.16-7.21,6.24-15.32,6.24-24.34v-61.15h-23.92v102.44ZM501.64,111.78v50.16c0,5.27,1.38,9.46,4.16,12.58,2.77,3.12,6.66,4.68,11.65,4.68s9.78-2.42,14.35-7.28l9.57,16.43c-8.18,7.35-17.23,11.02-27.14,11.02s-18.38-3.43-25.38-10.3c-7-6.86-10.5-16.12-10.5-27.77v-49.54h-18.24v-20.72h18.24V18L501.64,0v91.06h33.46v20.72h-33.46Zm113.27,1.12c-11.51,0-18.99,4.61-24.81,12.1-5.82,7.49-9.92,19.38-9.92,32v40.71h-23.3v-106.66h23.3v22.26c3.74-6.93,8.84-12.62,15.29-17.06,6.45-4.44,13.28-6.72,20.49-6.86l.21,23.5h-1.25Zm663.29,17.47c0-14.14-4.13-24.51-12.38-31.1-8.25-6.58-18.89-9.88-31.92-9.88-17.06,0-32.31,5.34-45.76,16.02l10.4,14.56c11.09-7.49,21.77-11.23,32.03-11.23,16.36,0,26.53,7.56,26.53,22.26v79.54l21.26-11.45-.16-68.72Zm-337.4,41.55c-4.58,4.86-9.36,7.28-14.35,7.28s-8.88-1.56-11.65-4.68c-2.78-3.12-4.16-7.31-4.16-12.58v-37.94h-23.3v37.31c0,11.65,3.5,20.9,10.5,27.77,7,6.86,15.46,10.3,25.38,10.3s18.96-3.67,27.14-11.02l-9.57-16.43Zm-30.16-117.92h-23.3v25h23.3v-25Zm253.31,35.39c-7.21.14-14.04,2.43-20.49,6.86-1.17.81-2.28,1.67-3.36,2.56v23.81c5.53-6.08,12.57-9.73,22.81-9.73h1.25l-.21-23.5Zm93.15,94.61v-.22m-129-92.78h-23v107h23v-107Zm-913.67-3.73c-6.24-10.96-15.04-19.56-26.41-25.8s-24.82-9.36-40.35-9.36h-47.84v119.89H3.95l20.04,26h86.1v-.29h37.57c15.53,0,28.98-3.12,40.35-9.36s20.17-14.83,26.41-25.79c6.24-10.95,9.36-23.5,9.36-37.65s-3.12-26.69-9.36-37.64Zm-22.04,64.79c-4.44,7.69-10.51,13.59-18.2,17.68-7.7,4.09-16.47,6.13-26.32,6.13h-23.29v-101.92h23.29c9.85,0,18.62,2.05,26.32,6.14,7.69,4.09,13.76,9.95,18.2,17.58,4.43,7.62,6.65,16.71,6.65,27.24s-2.22,19.45-6.65,27.15Zm1050.71,27.96c-1.67-.13-3.4-.2-5.2-.2h-21.18c-4.63-.82-6.24-2.04-8.32-4.12s-3.12-5.5-3.12-8.28c0-2.91,1.04-6.37,3.12-8.38,2.08-2.01,4.71-3.03,7.9-3.03h26.79v-18.37h-29.08c-6.1,0-11.58,1.46-16.43,4.37-4.86,2.91-8.7,6.73-11.54,11.44-2.84,4.72-4.26,9.92-4.26,15.6,0,7.07,1.52,12.93,4.58,17.58,3.05,4.65,7.21,8.08,12.48,10.3,5.27,2.22,11.3,3.33,18.1,3.33h26.17m-302-109.24h-68v21h68v-21Z"/>
</svg>